PathFileType   4   (X/Y/Z)
DataRate	CameraRate	NumFrames	NumMarkers	Units	OrigDataRate	OrigDataStartFrame	OrigNumFrames
120.0	120.0	8	37	mm	120.0	14	97
Frame#	Time	midhip	hip_r	hip_l	knee_r	knee_l	ankle_r	ankle_l	midasis	asis_r	asis_l	psis_r	psis_l	epicondLat_r	epicondLat_l	epicondMed_r	epicondMed_l	malleolusLat_r	malleolusLat_l	malleolusMedv_r	malleolusMedv_l	neck	subclavicle_r	subclavicle_l	sternalnotch	xyphoidprocess	thighwand_r	thighwand_l	upperleg1_r	upperleg1_l	upperleg2_r	upperleg2_l	shankwand_r	shankwand_l	lowerleg1_r	lowerleg1_l	toe_r	toe_l
 	 	X1	Y1	Z1	X2	Y2	Z2	X3	Y3	Z3	X4	Y4	Z4	X5	Y5	Z5	X6	Y6	Z6	X7	Y7	Z7	X8	Y8	Z8	X9	Y9	Z9	X10	Y10	Z10	X11	Y11	Z11	X12	Y12	Z12	X13	Y13	Z13	X14	Y14	Z14	X15	Y15	Z15	X16	Y16	Z16	X17	Y17	Z17	X18	Y18	Z18	X19	Y19	Z19	X20	Y20	Z20	X21	Y21	Z21	X22	Y22	Z22	X23	Y23	Z23	X24	Y24	Z24	X25	Y25	Z25	X26	Y26	Z26	X27	Y27	Z27	X28	Y28	Z28	X29	Y29	Z29	X30	Y30	Z30	X31	Y31	Z31	X32	Y32	Z32	X33	Y33	Z33	X34	Y34	Z34	X35	Y35	Z35	X36	Y36	Z36	X37	Y37	Z37

	14	0.20833	1383.174	815.951	-238.974	1371.161	805.179	-166.586	1366.000	795.037	-318.287	1433.687	434.461	-179.902	1414.270	402.757	-374.325	1375.694	66.227	-201.146	1137.906	187.283	-366.583	1458.583	874.415	-247.417	1458.712	882.274	-127.833	1458.454	866.555	-367.002	1264.750	935.108	-218.541	1262.260	926.269	-272.963	1441.857	433.776	-122.484	1426.336	412.232	-430.259	1421.393	434.019	-231.226	1451.467	401.279	-310.722	1363.358	65.974	-163.096	1130.161	195.841	-404.881	1387.874	74.656	-233.984	1151.445	187.901	-341.383	1346.408	1375.936	-262.009	1474.374	1316.792	-215.952	1470.599	1311.121	-320.603	1469.112	1310.506	-267.492	1509.762	1241.710	-269.004	1566.273	587.568	-201.654	1458.303	557.371	-495.915	1504.067	627.067	-134.375	1391.471	586.930	-431.360	1501.938	538.241	-138.634	1414.700	502.400	-432.002	1369.883	136.305	-88.055	1295.871	191.962	-357.499	1372.740	147.329	-129.374	1268.278	223.606	-366.294	1472.201	38.173	-167.728	1176.607	85.578	-385.060
	15	0.21667	1395.483	817.759	-238.295	1383.237	806.983	-166.620	1378.570	797.940	-318.407	1435.724	434.793	-180.426	1437.797	405.993	-373.556	1375.689	66.789	-201.499	1168.447	181.971	-364.318	1470.966	876.746	-246.660	1470.706	883.737	-127.095	1471.227	869.755	-366.226	1277.616	937.363	-218.020	1275.090	928.639	-272.486	1444.568	433.914	-123.111	1449.325	415.618	-429.578	1422.420	435.117	-232.291	1477.133	403.878	-312.309	1363.357	66.621	-163.448	1159.828	190.764	-402.375	1387.563	75.171	-234.432	1181.982	183.175	-339.196	1359.754	1377.388	-261.158	1487.309	1319.515	-215.825	1483.260	1313.620	-320.399	1481.964	1312.588	-267.361	1522.998	1244.549	-268.810	1571.818	584.718	-203.842	1476.997	560.919	-496.067	1511.454	625.555	-136.333	1409.427	588.746	-430.134	1506.758	537.230	-140.487	1435.498	504.940	-432.001	1370.268	136.904	-88.422	1325.796	191.518	-357.672	1373.102	147.943	-129.889	1297.200	222.572	-366.709	1472.543	38.242	-167.818	1212.384	83.794	-383.239
	16	0.22500	1407.961	819.446	-238.487	1395.367	808.500	-166.774	1391.107	800.574	-318.635	1437.796	435.226	-181.014	1461.065	409.378	-372.705	1375.963	67.283	-201.824	1199.682	176.042	-362.287	1483.373	878.773	-246.062	1482.793	884.879	-126.610	1483.953	872.667	-365.513	1290.537	939.344	-217.479	1287.895	930.786	-272.004	1447.239	434.117	-123.799	1471.953	419.084	-428.841	1423.406	436.983	-234.170	1501.163	408.310	-311.981	1363.520	67.224	-163.809	1190.119	185.068	-400.063	1387.960	75.534	-234.743	1213.009	177.840	-337.407	1372.495	1378.715	-260.917	1500.244	1321.551	-215.849	1496.095	1315.350	-320.276	1494.845	1314.415	-267.172	1536.191	1246.593	-268.605	1577.366	581.743	-205.928	1495.265	564.331	-496.318	1518.839	624.239	-137.846	1427.102	590.841	-430.022	1511.454	535.876	-142.471	1455.805	507.388	-431.766	1370.570	137.579	-88.904	1356.171	190.955	-358.131	1373.670	148.414	-130.293	1326.205	220.973	-367.170	1472.850	38.336	-167.960	1248.587	81.665	-381.727
	17	0.23333	1421.037	821.368	-239.468	1407.536	809.707	-167.040	1403.600	802.900	-318.964	1439.938	435.725	-181.663	1484.098	412.859	-371.752	1376.517	67.700	-202.124	1231.574	169.617	-360.510	1495.794	880.460	-245.618	1494.961	885.681	-126.367	1496.628	875.239	-364.869	1303.477	941.028	-216.945	1300.648	932.687	-271.540	1449.890	434.354	-124.539	1494.253	422.571	-428.024	1426.523	436.867	-234.561	1523.890	413.157	-310.807	1363.837	67.776	-164.187	1221.032	178.829	-397.980	1389.501	75.202	-234.802	1244.250	172.343	-335.837	1384.845	1380.021	-260.867	1513.523	1323.209	-215.300	1508.714	1316.293	-320.596	1507.774	1315.931	-266.952	1549.279	1247.965	-268.276	1582.958	578.684	-207.871	1513.141	567.537	-496.642	1525.376	622.506	-139.343	1445.300	592.878	-430.127	1516.701	535.004	-143.668	1475.543	510.086	-431.232	1370.766	138.320	-89.477	1386.954	190.348	-358.756	1374.699	148.959	-131.010	1355.490	218.974	-366.764	1473.105	38.453	-168.143	1285.165	79.257	-380.615
	18	0.24167	1434.289	823.227	-240.884	1419.699	810.599	-167.408	1416.028	804.892	-319.384	1442.182	436.251	-182.369	1506.886	416.381	-370.689	1377.265	68.074	-202.426	1264.065	162.811	-358.991	1508.203	881.785	-245.315	1507.164	886.136	-126.351	1509.242	877.434	-364.280	1316.394	942.421	-216.453	1313.374	934.308	-271.101	1452.544	434.594	-125.326	1516.240	426.020	-427.112	1428.907	436.923	-234.103	1547.528	418.183	-309.738	1364.250	68.308	-164.603	1252.546	172.127	-396.147	1391.648	74.473	-234.715	1276.780	166.481	-334.448	1397.686	1381.047	-260.407	1526.727	1324.576	-215.073	1521.597	1317.170	-320.624	1520.767	1317.082	-266.741	1562.440	1249.149	-267.978	1588.636	575.598	-209.654	1530.663	570.481	-496.999	1532.200	621.120	-140.834	1463.353	594.502	-430.060	1521.703	533.805	-144.496	1495.365	512.718	-430.615	1370.862	139.132	-90.108	1418.103	189.765	-359.429	1375.757	149.492	-131.994	1385.730	217.434	-366.224	1473.296	38.592	-168.360	1322.094	76.649	-379.968
	19	0.25000	1446.357	823.540	-240.913	1431.835	811.177	-167.850	1428.364	806.537	-319.867	1444.559	436.779	-183.135	1529.392	419.884	-369.525	1378.065	68.468	-202.762	1297.100	155.737	-357.715	1520.578	882.740	-245.137	1519.386	886.252	-126.528	1521.770	879.228	-363.747	1329.238	943.537	-216.041	1326.065	935.630	-270.691	1455.231	434.816	-126.159	1537.906	429.375	-426.106	1430.307	438.489	-235.007	1570.264	423.602	-308.556	1364.671	68.877	-165.074	1284.642	165.045	-394.568	1393.785	74.354	-234.525	1310.426	160.080	-333.248	1411.597	1381.726	-259.918	1539.841	1325.683	-215.029	1534.522	1317.616	-319.919	1533.833	1317.865	-266.539	1575.349	1249.868	-267.193	1594.438	572.542	-211.267	1547.872	573.121	-497.344	1539.421	620.146	-142.313	1480.668	596.254	-430.449	1526.110	532.188	-145.804	1514.815	515.094	-430.211	1370.893	140.028	-90.768	1449.573	189.260	-360.038	1376.578	150.316	-132.551	1416.435	215.693	-366.032	1473.429	38.743	-168.605	1359.375	73.933	-379.818
	20	0.25833	1458.179	823.622	-241.157	1443.920	811.450	-168.356	1440.597	807.830	-320.404	1447.103	437.298	-183.968	1551.564	423.314	-368.277	1378.779	68.939	-203.162	1330.650	148.501	-356.662	1532.901	883.329	-245.074	1531.598	886.044	-126.859	1534.204	880.614	-363.288	1341.959	944.391	-215.740	1338.737	936.640	-270.307	1457.985	435.015	-127.044	1559.232	432.591	-425.015	1432.904	439.489	-236.636	1592.571	428.540	-307.662	1365.017	69.535	-165.608	1317.322	157.670	-393.245	1394.588	75.245	-234.834	1343.945	153.355	-332.191	1425.191	1382.147	-259.563	1553.084	1326.377	-214.730	1547.269	1317.814	-319.448	1546.970	1318.305	-266.359	1588.235	1250.257	-266.634	1600.390	569.550	-212.714	1564.803	575.429	-497.633	1546.283	618.664	-143.944	1497.521	597.882	-430.378	1530.736	530.801	-147.323	1533.822	517.236	-429.668	1370.912	141.014	-91.438	1481.324	188.872	-360.492	1376.550	151.439	-132.956	1447.097	213.349	-365.378	1473.523	38.897	-168.884	1397.016	71.214	-380.158
	21	0.26667	1471.783	825.266	-240.779	1455.939	811.427	-168.935	1452.739	808.778	-321.006	1449.852	437.801	-184.868	1573.337	426.629	-366.959	1379.320	69.520	-203.656	1364.714	141.197	-355.813	1545.168	883.565	-245.120	1543.775	885.528	-127.306	1546.562	881.602	-362.935	1354.529	944.999	-215.565	1351.352	937.345	-269.967	1460.846	435.196	-127.979	1580.182	435.630	-423.846	1436.208	440.671	-238.286	1615.384	434.031	-306.444	1365.251	70.304	-166.220	1350.606	150.088	-392.171	1394.292	76.328	-235.678	1377.532	146.540	-331.145	1438.063	1382.294	-259.030	1566.474	1326.658	-214.768	1560.257	1317.866	-319.359	1560.154	1318.413	-266.229	1601.526	1250.477	-266.605	1606.510	566.627	-214.000	1581.484	577.400	-497.834	1553.534	616.528	-145.116	1513.983	599.073	-430.078	1536.175	529.927	-148.706	1552.777	519.395	-428.825	1370.988	142.087	-92.114	1513.310	188.633	-360.740	1376.099	152.332	-133.710	1477.851	211.508	-364.587	1473.604	39.042	-169.216	1435.028	68.602	-380.951
